<svg version="1.1" xmlns="http://www.w3.org/2000/svg">
  <defs>
    <symbol id="24x24_reservation" height="24" viewBox="0 0 24 24" width="24">
      <path d="M18 21H6a3 3 0 0 1-3-3V6a3 3 0 0 1 3-3 1 1 0 0 1 2 0h8a1 1 0 0 1 2 0 3 3 0 0 1 3 3v12a3 3 0 0 1-3 3zm1-13H5v10c0 .55.45 1 1 1h12c.55 0 1-.45 1-1V8zm-6 5h4v4h-4v-4z"></path>
    </symbol>
    <symbol id="18x18_reservation" height="18" viewBox="0 0 18 18" width="18">
      <path d="M13.6 16H4.4C3.077 16 2 14.88 2 13.5v-9C2 3.12 3.077 2 4.4 2H5a1 1 0 0 1 2 0h4a1 1 0 0 1 2 0h.6C14.923 2 16 3.12 16 4.5v9c0 1.38-1.077 2.5-2.4 2.5zM15 7H3v6.5c0 .828.627 1.5 1.4 1.5h9.2c.773 0 1.4-.672 1.4-1.5V7zm-5 3h3v3h-3v-3z"></path>
    </symbol>
    <symbol id="18x18_clock" height="18" viewBox="0 0 18 18" width="18">
      <path d="M9 17A8 8 0 1 1 9 1a8 8 0 0 1 0 16zM9 2C5.14 2 2 5.14 2 9s3.14 7 7 7 7-3.14 7-7-3.14-7-7-7zm3.223 10.098a.998.998 0 0 1-.588-.192L8 9.256V5a1 1 0 0 1 2 0v3.24l2.812 2.05a1 1 0 0 1-.59 1.808z"></path>
    </symbol>
    <symbol id="14x14_triangle_down" height="14" viewBox="0 0 14 14" width="14">
      <path d="M7 9L3.5 5h7L7 9z"></path>
    </symbol>
    <symbol id="18x18_friends" height="18" viewBox="0 0 18 18" width="18">
      <g>
        <path d="M7.904 9.43l-2.098 4.697a.9.9 0 0 1-1.612 0L2.096 9.43a.902.902 0 0 1 .806-1.305h4.196c.67 0 1.105.705.806 1.305zM5 7.375a2 2 0 1 1 0-4 2 2 0 0 1 0 4z"></path>
        <path d="M15.904 9.43l-2.098 4.697a.89.89 0 0 1-.806.498.89.89 0 0 1-.806-.498L10.096 9.43a.902.902 0 0 1 .806-1.305h4.195c.67 0 1.106.705.807 1.305zM13 7.375a2 2 0 1 1 0-4 2 2 0 0 1 0 4z"
          opacity=".502"></path>
      </g>
    </symbol>
    <symbol id="24x24_clock" height="24" viewBox="0 0 24 24" width="24">
      <path d="M12 22C6.477 22 2 17.523 2 12S6.477 2 12 2s10 4.477 10 10-4.477 10-10 10zm0-18c-4.41 0-8 3.59-8 8s3.59 8 8 8 8-3.59 8-8-3.59-8-8-8zm3 11c-.19 0-.384-.055-.555-.168L11 12.535V7a1 1 0 0 1 2 0v4.465l2.555 1.703A1 1 0 0 1 15 15z"></path>
    </symbol>
    <symbol id="24x24_food" height="24" viewBox="0 0 24 24" width="24">
      <path d="M17.22 22a1.78 1.78 0 0 1-1.74-2.167l1.298-4.98L14 13l1.756-9.657A1.635 1.635 0 0 1 19 3.635V20.22A1.78 1.78 0 0 1 17.22 22zm-7.138-9.156l.697 7.168a1.79 1.79 0 1 1-3.56 0l.7-7.178A3.985 3.985 0 0 1 5 9V3a1 1 0 0 1 2 0v5.5c0 .28.22.5.5.5s.5-.22.5-.5V3a1 1 0 0 1 2 0v5.5c0 .28.22.5.5.5s.5-.22.5-.5V3a1 1 0 0 1 2 0v5.83c0 1.85-1.2 3.518-2.918 4.014z"></path>
    </symbol>
    <symbol id="24x24_medical" height="24" viewBox="0 0 24 24" width="24">
      <path d="M15 9V4H9v5H4v6h5v5h6v-5h5V9h-5z"></path>
    </symbol>
    <symbol id="14x14_pencil" height="14" viewBox="0 0 14 14" width="14">
      <path d="M12.95 3.05c0-.512-.195-1.023-.586-1.414a1.996 1.996 0 0 0-2.83 0L8.122 3.05 2.465 8.707 1.05 12.95l4.243-1.414L10.95 5.88l1.414-1.416c.39-.39.586-.902.586-1.414zm-8.197 7.61l-2.122.71.71-2.123 5.49-5.49 1.415 1.415-5.49 5.49z"></path>
    </symbol>
    <symbol id="dollarsign_1" viewBox="0 0 62 32">
      <path fill="#469e10" style="fill: var(--color1, #469e10)" d="M13.252 16.921c-1.29-1.007-2.95-1.664-4.555-2.3-3.267-1.294-5.25-2.245-5.25-4.544 0-0.923 0.427-1.784 1.204-2.424 0.889-0.733 2.139-1.12 3.616-1.12 2.761 0 4.629 1.753 4.646 1.769 0.162 0.156 0.385 0.232 0.609 0.206s0.423-0.151 0.545-0.341l0.772-1.208c0.187-0.293 0.149-0.675-0.093-0.925-0.082-0.085-1.931-1.96-5.258-2.323v-2.961c0-0.414-0.336-0.75-0.75-0.75h-1.443c-0.414 0-0.75 0.336-0.75 0.75v3.039c-1.682 0.293-3.13 0.981-4.216 2.012-1.219 1.156-1.891 2.687-1.891 4.311 0 1.973 0.776 3.547 2.372 4.811 1.328 1.052 3.024 1.737 4.664 2.399 3.159 1.275 5.076 2.201 5.076 4.298 0 2.285-1.844 3.88-4.484 3.88-3.486 0-5.689-2.339-5.721-2.373-0.144-0.157-0.347-0.247-0.56-0.244-0.213 0.002-0.416 0.095-0.557 0.255l-0.973 1.107c-0.248 0.282-0.249 0.705-0.002 0.988 0.096 0.11 2.283 2.569 6.291 3.075v2.942c0 0.414 0.336 0.75 0.75 0.75h1.443c0.414 0 0.75-0.336 0.75-0.75v-2.957c1.698-0.264 3.152-0.982 4.234-2.099 1.186-1.224 1.839-2.872 1.839-4.641 0-1.905-0.755-3.421-2.307-4.632z"></path>
      <path fill="#b3b3b3" style="fill: var(--color2, #b3b3b3)" d="M28.869 16.921c-1.29-1.007-2.95-1.664-4.555-2.3-3.267-1.294-5.25-2.245-5.25-4.544 0-0.923 0.427-1.784 1.203-2.424 0.889-0.733 2.139-1.12 3.616-1.12 2.761 0 4.629 1.753 4.646 1.769 0.162 0.156 0.385 0.232 0.609 0.206s0.423-0.151 0.545-0.341l0.772-1.208c0.187-0.293 0.149-0.675-0.093-0.925-0.082-0.085-1.931-1.96-5.258-2.323v-2.961c0-0.414-0.336-0.75-0.75-0.75h-1.443c-0.414 0-0.75 0.336-0.75 0.75v3.039c-1.682 0.293-3.13 0.981-4.216 2.012-1.219 1.156-1.891 2.687-1.891 4.311 0 1.973 0.776 3.547 2.372 4.811 1.328 1.052 3.024 1.737 4.664 2.399 3.159 1.275 5.076 2.201 5.076 4.298 0 2.285-1.844 3.88-4.484 3.88-3.486 0-5.689-2.339-5.721-2.373-0.144-0.157-0.347-0.247-0.56-0.244-0.213 0.002-0.416 0.095-0.557 0.255l-0.973 1.107c-0.248 0.282-0.249 0.705-0.002 0.988 0.096 0.11 2.283 2.569 6.291 3.075v2.942c0 0.414 0.336 0.75 0.75 0.75h1.443c0.414 0 0.75-0.336 0.75-0.75v-2.957c1.698-0.264 3.152-0.982 4.234-2.099 1.186-1.224 1.839-2.872 1.839-4.641 0-1.905-0.755-3.421-2.307-4.632z"></path>
      <path fill="#b3b3b3" style="fill: var(--color2, #b3b3b3)" d="M44.484 16.921c-1.29-1.007-2.95-1.664-4.555-2.3-3.267-1.294-5.25-2.245-5.25-4.544 0-0.923 0.427-1.784 1.203-2.424 0.889-0.733 2.139-1.12 3.616-1.12 2.761 0 4.629 1.753 4.646 1.769 0.162 0.156 0.385 0.232 0.609 0.206s0.423-0.151 0.545-0.341l0.772-1.208c0.187-0.293 0.149-0.675-0.093-0.925-0.082-0.085-1.931-1.96-5.258-2.323v-2.961c0-0.414-0.336-0.75-0.75-0.75h-1.443c-0.414 0-0.75 0.336-0.75 0.75v3.039c-1.682 0.293-3.13 0.981-4.216 2.012-1.219 1.156-1.891 2.687-1.891 4.311 0 1.973 0.776 3.547 2.372 4.811 1.328 1.052 3.024 1.737 4.664 2.399 3.159 1.275 5.076 2.201 5.076 4.298 0 2.285-1.844 3.88-4.484 3.88-3.486 0-5.689-2.339-5.721-2.373-0.144-0.157-0.347-0.247-0.56-0.244-0.213 0.002-0.416 0.095-0.557 0.255l-0.973 1.107c-0.248 0.282-0.249 0.705-0.002 0.988 0.096 0.11 2.282 2.569 6.291 3.075v2.942c0 0.414 0.336 0.75 0.75 0.75h1.443c0.414 0 0.75-0.336 0.75-0.75v-2.957c1.698-0.264 3.152-0.982 4.234-2.099 1.186-1.224 1.839-2.872 1.839-4.641 0-1.905-0.755-3.421-2.307-4.632z"></path>
      <path fill="#b3b3b3" style="fill: var(--color2, #b3b3b3)" d="M60.1 16.921c-1.29-1.007-2.95-1.664-4.555-2.3-3.267-1.294-5.25-2.245-5.25-4.544 0-0.923 0.427-1.784 1.203-2.424 0.889-0.733 2.139-1.12 3.616-1.12 2.761 0 4.629 1.753 4.646 1.769 0.162 0.156 0.385 0.232 0.609 0.206s0.423-0.151 0.545-0.341l0.772-1.208c0.187-0.293 0.149-0.675-0.093-0.925-0.082-0.085-1.931-1.96-5.258-2.323v-2.961c0-0.414-0.336-0.75-0.75-0.75h-1.443c-0.414 0-0.75 0.336-0.75 0.75v3.039c-1.682 0.293-3.13 0.981-4.216 2.012-1.219 1.156-1.891 2.687-1.891 4.311 0 1.973 0.776 3.547 2.372 4.811 1.328 1.052 3.024 1.737 4.664 2.399 3.159 1.275 5.076 2.201 5.076 4.298 0 2.285-1.844 3.88-4.484 3.88-3.486 0-5.689-2.339-5.721-2.373-0.144-0.157-0.347-0.247-0.56-0.244-0.213 0.002-0.416 0.095-0.557 0.255l-0.973 1.107c-0.248 0.282-0.249 0.705-0.002 0.988 0.096 0.11 2.282 2.569 6.291 3.075v2.942c0 0.414 0.336 0.75 0.75 0.75h1.443c0.414 0 0.75-0.336 0.75-0.75v-2.957c1.698-0.264 3.152-0.982 4.234-2.099 1.186-1.224 1.839-2.872 1.839-4.641 0-1.905-0.755-3.421-2.307-4.632z"></path>
    </symbol>
    <symbol id="dollarsign_2" viewBox="0 0 62 32">
      <path fill="#469e10" style="fill: var(--color1, #469e10)" d="M13.252 16.921c-1.29-1.007-2.95-1.664-4.555-2.3-3.267-1.294-5.25-2.245-5.25-4.544 0-0.923 0.427-1.784 1.204-2.424 0.889-0.733 2.139-1.12 3.616-1.12 2.761 0 4.629 1.753 4.646 1.769 0.162 0.156 0.385 0.232 0.609 0.206s0.423-0.151 0.545-0.341l0.772-1.208c0.187-0.293 0.149-0.675-0.093-0.925-0.082-0.085-1.931-1.96-5.258-2.323v-2.961c0-0.414-0.336-0.75-0.75-0.75h-1.443c-0.414 0-0.75 0.336-0.75 0.75v3.039c-1.682 0.293-3.13 0.981-4.216 2.012-1.219 1.156-1.891 2.687-1.891 4.311 0 1.973 0.776 3.547 2.372 4.811 1.328 1.052 3.024 1.737 4.664 2.399 3.159 1.275 5.076 2.201 5.076 4.298 0 2.285-1.844 3.88-4.484 3.88-3.486 0-5.689-2.339-5.721-2.373-0.144-0.157-0.347-0.247-0.56-0.244-0.213 0.002-0.416 0.095-0.557 0.255l-0.973 1.107c-0.248 0.282-0.249 0.705-0.002 0.988 0.096 0.11 2.283 2.569 6.291 3.075v2.942c0 0.414 0.336 0.75 0.75 0.75h1.443c0.414 0 0.75-0.336 0.75-0.75v-2.957c1.698-0.264 3.152-0.982 4.234-2.099 1.186-1.224 1.839-2.872 1.839-4.641 0-1.905-0.755-3.421-2.307-4.632z"></path>
      <path fill="#469e10" style="fill: var(--color1, #469e10)" d="M28.869 16.921c-1.29-1.007-2.95-1.664-4.555-2.3-3.267-1.294-5.25-2.245-5.25-4.544 0-0.923 0.427-1.784 1.203-2.424 0.889-0.733 2.139-1.12 3.616-1.12 2.761 0 4.629 1.753 4.646 1.769 0.162 0.156 0.385 0.232 0.609 0.206s0.423-0.151 0.545-0.341l0.772-1.208c0.187-0.293 0.149-0.675-0.093-0.925-0.082-0.085-1.931-1.96-5.258-2.323v-2.961c0-0.414-0.336-0.75-0.75-0.75h-1.443c-0.414 0-0.75 0.336-0.75 0.75v3.039c-1.682 0.293-3.13 0.981-4.216 2.012-1.219 1.156-1.891 2.687-1.891 4.311 0 1.973 0.776 3.547 2.372 4.811 1.328 1.052 3.024 1.737 4.664 2.399 3.159 1.275 5.076 2.201 5.076 4.298 0 2.285-1.844 3.88-4.484 3.88-3.486 0-5.689-2.339-5.721-2.373-0.144-0.157-0.347-0.247-0.56-0.244-0.213 0.002-0.416 0.095-0.557 0.255l-0.973 1.107c-0.248 0.282-0.249 0.705-0.002 0.988 0.096 0.11 2.283 2.569 6.291 3.075v2.942c0 0.414 0.336 0.75 0.75 0.75h1.443c0.414 0 0.75-0.336 0.75-0.75v-2.957c1.698-0.264 3.152-0.982 4.234-2.099 1.186-1.224 1.839-2.872 1.839-4.641 0-1.905-0.755-3.421-2.307-4.632z"></path>
      <path fill="#b3b3b3" style="fill: var(--color2, #b3b3b3)" d="M44.484 16.921c-1.29-1.007-2.95-1.664-4.555-2.3-3.267-1.294-5.25-2.245-5.25-4.544 0-0.923 0.427-1.784 1.203-2.424 0.889-0.733 2.139-1.12 3.616-1.12 2.761 0 4.629 1.753 4.646 1.769 0.162 0.156 0.385 0.232 0.609 0.206s0.423-0.151 0.545-0.341l0.772-1.208c0.187-0.293 0.149-0.675-0.093-0.925-0.082-0.085-1.931-1.96-5.258-2.323v-2.961c0-0.414-0.336-0.75-0.75-0.75h-1.443c-0.414 0-0.75 0.336-0.75 0.75v3.039c-1.682 0.293-3.13 0.981-4.216 2.012-1.219 1.156-1.891 2.687-1.891 4.311 0 1.973 0.776 3.547 2.372 4.811 1.328 1.052 3.024 1.737 4.664 2.399 3.159 1.275 5.076 2.201 5.076 4.298 0 2.285-1.844 3.88-4.484 3.88-3.486 0-5.689-2.339-5.721-2.373-0.144-0.157-0.347-0.247-0.56-0.244-0.213 0.002-0.416 0.095-0.557 0.255l-0.973 1.107c-0.248 0.282-0.249 0.705-0.002 0.988 0.096 0.11 2.282 2.569 6.291 3.075v2.942c0 0.414 0.336 0.75 0.75 0.75h1.443c0.414 0 0.75-0.336 0.75-0.75v-2.957c1.698-0.264 3.152-0.982 4.234-2.099 1.186-1.224 1.839-2.872 1.839-4.641 0-1.905-0.755-3.421-2.307-4.632z"></path>
      <path fill="#b3b3b3" style="fill: var(--color2, #b3b3b3)" d="M60.1 16.921c-1.29-1.007-2.95-1.664-4.555-2.3-3.267-1.294-5.25-2.245-5.25-4.544 0-0.923 0.427-1.784 1.203-2.424 0.889-0.733 2.139-1.12 3.616-1.12 2.761 0 4.629 1.753 4.646 1.769 0.162 0.156 0.385 0.232 0.609 0.206s0.423-0.151 0.545-0.341l0.772-1.208c0.187-0.293 0.149-0.675-0.093-0.925-0.082-0.085-1.931-1.96-5.258-2.323v-2.961c0-0.414-0.336-0.75-0.75-0.75h-1.443c-0.414 0-0.75 0.336-0.75 0.75v3.039c-1.682 0.293-3.13 0.981-4.216 2.012-1.219 1.156-1.891 2.687-1.891 4.311 0 1.973 0.776 3.547 2.372 4.811 1.328 1.052 3.024 1.737 4.664 2.399 3.159 1.275 5.076 2.201 5.076 4.298 0 2.285-1.844 3.88-4.484 3.88-3.486 0-5.689-2.339-5.721-2.373-0.144-0.157-0.347-0.247-0.56-0.244-0.213 0.002-0.416 0.095-0.557 0.255l-0.973 1.107c-0.248 0.282-0.249 0.705-0.002 0.988 0.096 0.11 2.282 2.569 6.291 3.075v2.942c0 0.414 0.336 0.75 0.75 0.75h1.443c0.414 0 0.75-0.336 0.75-0.75v-2.957c1.698-0.264 3.152-0.982 4.234-2.099 1.186-1.224 1.839-2.872 1.839-4.641 0-1.905-0.755-3.421-2.307-4.632z"></path>
    </symbol>
    <symbol id="dollarsign_3" viewBox="0 0 62 32">
      <path fill="#469e10" style="fill: var(--color1, #469e10)" d="M13.252 16.921c-1.29-1.007-2.95-1.664-4.555-2.3-3.267-1.294-5.25-2.245-5.25-4.544 0-0.923 0.427-1.784 1.204-2.424 0.889-0.733 2.139-1.12 3.616-1.12 2.761 0 4.629 1.753 4.646 1.769 0.162 0.156 0.385 0.232 0.609 0.206s0.423-0.151 0.545-0.341l0.772-1.208c0.187-0.293 0.149-0.675-0.093-0.925-0.082-0.085-1.931-1.96-5.258-2.323v-2.961c0-0.414-0.336-0.75-0.75-0.75h-1.443c-0.414 0-0.75 0.336-0.75 0.75v3.039c-1.682 0.293-3.13 0.981-4.216 2.012-1.219 1.156-1.891 2.687-1.891 4.311 0 1.973 0.776 3.547 2.372 4.811 1.328 1.052 3.024 1.737 4.664 2.399 3.159 1.275 5.076 2.201 5.076 4.298 0 2.285-1.844 3.88-4.484 3.88-3.486 0-5.689-2.339-5.721-2.373-0.144-0.157-0.347-0.247-0.56-0.244-0.213 0.002-0.416 0.095-0.557 0.255l-0.973 1.107c-0.248 0.282-0.249 0.705-0.002 0.988 0.096 0.11 2.283 2.569 6.291 3.075v2.942c0 0.414 0.336 0.75 0.75 0.75h1.443c0.414 0 0.75-0.336 0.75-0.75v-2.957c1.698-0.264 3.152-0.982 4.234-2.099 1.186-1.224 1.839-2.872 1.839-4.641 0-1.905-0.755-3.421-2.307-4.632z"></path>
      <path fill="#469e10" style="fill: var(--color1, #469e10)" d="M28.869 16.921c-1.29-1.007-2.95-1.664-4.555-2.3-3.267-1.294-5.25-2.245-5.25-4.544 0-0.923 0.427-1.784 1.203-2.424 0.889-0.733 2.139-1.12 3.616-1.12 2.761 0 4.629 1.753 4.646 1.769 0.162 0.156 0.385 0.232 0.609 0.206s0.423-0.151 0.545-0.341l0.772-1.208c0.187-0.293 0.149-0.675-0.093-0.925-0.082-0.085-1.931-1.96-5.258-2.323v-2.961c0-0.414-0.336-0.75-0.75-0.75h-1.443c-0.414 0-0.75 0.336-0.75 0.75v3.039c-1.682 0.293-3.13 0.981-4.216 2.012-1.219 1.156-1.891 2.687-1.891 4.311 0 1.973 0.776 3.547 2.372 4.811 1.328 1.052 3.024 1.737 4.664 2.399 3.159 1.275 5.076 2.201 5.076 4.298 0 2.285-1.844 3.88-4.484 3.88-3.486 0-5.689-2.339-5.721-2.373-0.144-0.157-0.347-0.247-0.56-0.244-0.213 0.002-0.416 0.095-0.557 0.255l-0.973 1.107c-0.248 0.282-0.249 0.705-0.002 0.988 0.096 0.11 2.283 2.569 6.291 3.075v2.942c0 0.414 0.336 0.75 0.75 0.75h1.443c0.414 0 0.75-0.336 0.75-0.75v-2.957c1.698-0.264 3.152-0.982 4.234-2.099 1.186-1.224 1.839-2.872 1.839-4.641 0-1.905-0.755-3.421-2.307-4.632z"></path>
      <path fill="#469e10" style="fill: var(--color1, #469e10)" d="M44.484 16.921c-1.29-1.007-2.95-1.664-4.555-2.3-3.267-1.294-5.25-2.245-5.25-4.544 0-0.923 0.427-1.784 1.203-2.424 0.889-0.733 2.139-1.12 3.616-1.12 2.761 0 4.629 1.753 4.646 1.769 0.162 0.156 0.385 0.232 0.609 0.206s0.423-0.151 0.545-0.341l0.772-1.208c0.187-0.293 0.149-0.675-0.093-0.925-0.082-0.085-1.931-1.96-5.258-2.323v-2.961c0-0.414-0.336-0.75-0.75-0.75h-1.443c-0.414 0-0.75 0.336-0.75 0.75v3.039c-1.682 0.293-3.13 0.981-4.216 2.012-1.219 1.156-1.891 2.687-1.891 4.311 0 1.973 0.776 3.547 2.372 4.811 1.328 1.052 3.024 1.737 4.664 2.399 3.159 1.275 5.076 2.201 5.076 4.298 0 2.285-1.844 3.88-4.484 3.88-3.486 0-5.689-2.339-5.721-2.373-0.144-0.157-0.347-0.247-0.56-0.244-0.213 0.002-0.416 0.095-0.557 0.255l-0.973 1.107c-0.248 0.282-0.249 0.705-0.002 0.988 0.096 0.11 2.282 2.569 6.291 3.075v2.942c0 0.414 0.336 0.75 0.75 0.75h1.443c0.414 0 0.75-0.336 0.75-0.75v-2.957c1.698-0.264 3.152-0.982 4.234-2.099 1.186-1.224 1.839-2.872 1.839-4.641 0-1.905-0.755-3.421-2.307-4.632z"></path>
      <path fill="#b3b3b3" style="fill: var(--color2, #b3b3b3)" d="M60.1 16.921c-1.29-1.007-2.95-1.664-4.555-2.3-3.267-1.294-5.25-2.245-5.25-4.544 0-0.923 0.427-1.784 1.203-2.424 0.889-0.733 2.139-1.12 3.616-1.12 2.761 0 4.629 1.753 4.646 1.769 0.162 0.156 0.385 0.232 0.609 0.206s0.423-0.151 0.545-0.341l0.772-1.208c0.187-0.293 0.149-0.675-0.093-0.925-0.082-0.085-1.931-1.96-5.258-2.323v-2.961c0-0.414-0.336-0.75-0.75-0.75h-1.443c-0.414 0-0.75 0.336-0.75 0.75v3.039c-1.682 0.293-3.13 0.981-4.216 2.012-1.219 1.156-1.891 2.687-1.891 4.311 0 1.973 0.776 3.547 2.372 4.811 1.328 1.052 3.024 1.737 4.664 2.399 3.159 1.275 5.076 2.201 5.076 4.298 0 2.285-1.844 3.88-4.484 3.88-3.486 0-5.689-2.339-5.721-2.373-0.144-0.157-0.347-0.247-0.56-0.244-0.213 0.002-0.416 0.095-0.557 0.255l-0.973 1.107c-0.248 0.282-0.249 0.705-0.002 0.988 0.096 0.11 2.282 2.569 6.291 3.075v2.942c0 0.414 0.336 0.75 0.75 0.75h1.443c0.414 0 0.75-0.336 0.75-0.75v-2.957c1.698-0.264 3.152-0.982 4.234-2.099 1.186-1.224 1.839-2.872 1.839-4.641 0-1.905-0.755-3.421-2.307-4.632z"></path>
    </symbol>
    <symbol id="dollarsign_4" viewBox="0 0 62 32">
      <path fill="#469e10" style="fill: var(--color1, #469e10)" d="M13.252 16.921c-1.29-1.007-2.95-1.664-4.555-2.3-3.267-1.294-5.25-2.245-5.25-4.544 0-0.923 0.427-1.784 1.204-2.424 0.889-0.733 2.139-1.12 3.616-1.12 2.761 0 4.629 1.753 4.646 1.769 0.162 0.156 0.385 0.232 0.609 0.206s0.423-0.151 0.545-0.341l0.772-1.208c0.187-0.293 0.149-0.675-0.093-0.925-0.082-0.085-1.931-1.96-5.258-2.323v-2.961c0-0.414-0.336-0.75-0.75-0.75h-1.443c-0.414 0-0.75 0.336-0.75 0.75v3.039c-1.682 0.293-3.13 0.981-4.216 2.012-1.219 1.156-1.891 2.687-1.891 4.311 0 1.973 0.776 3.547 2.372 4.811 1.328 1.052 3.024 1.737 4.664 2.399 3.159 1.275 5.076 2.201 5.076 4.298 0 2.285-1.844 3.88-4.484 3.88-3.486 0-5.689-2.339-5.721-2.373-0.144-0.157-0.347-0.247-0.56-0.244-0.213 0.002-0.416 0.095-0.557 0.255l-0.973 1.107c-0.248 0.282-0.249 0.705-0.002 0.988 0.096 0.11 2.283 2.569 6.291 3.075v2.942c0 0.414 0.336 0.75 0.75 0.75h1.443c0.414 0 0.75-0.336 0.75-0.75v-2.957c1.698-0.264 3.152-0.982 4.234-2.099 1.186-1.224 1.839-2.872 1.839-4.641 0-1.905-0.755-3.421-2.307-4.632z"></path>
      <path fill="#469e10" style="fill: var(--color1, #469e10)" d="M28.869 16.921c-1.29-1.007-2.95-1.664-4.555-2.3-3.267-1.294-5.25-2.245-5.25-4.544 0-0.923 0.427-1.784 1.203-2.424 0.889-0.733 2.139-1.12 3.616-1.12 2.761 0 4.629 1.753 4.646 1.769 0.162 0.156 0.385 0.232 0.609 0.206s0.423-0.151 0.545-0.341l0.772-1.208c0.187-0.293 0.149-0.675-0.093-0.925-0.082-0.085-1.931-1.96-5.258-2.323v-2.961c0-0.414-0.336-0.75-0.75-0.75h-1.443c-0.414 0-0.75 0.336-0.75 0.75v3.039c-1.682 0.293-3.13 0.981-4.216 2.012-1.219 1.156-1.891 2.687-1.891 4.311 0 1.973 0.776 3.547 2.372 4.811 1.328 1.052 3.024 1.737 4.664 2.399 3.159 1.275 5.076 2.201 5.076 4.298 0 2.285-1.844 3.88-4.484 3.88-3.486 0-5.689-2.339-5.721-2.373-0.144-0.157-0.347-0.247-0.56-0.244-0.213 0.002-0.416 0.095-0.557 0.255l-0.973 1.107c-0.248 0.282-0.249 0.705-0.002 0.988 0.096 0.11 2.283 2.569 6.291 3.075v2.942c0 0.414 0.336 0.75 0.75 0.75h1.443c0.414 0 0.75-0.336 0.75-0.75v-2.957c1.698-0.264 3.152-0.982 4.234-2.099 1.186-1.224 1.839-2.872 1.839-4.641 0-1.905-0.755-3.421-2.307-4.632z"></path>
      <path fill="#469e10" style="fill: var(--color1, #469e10)" d="M44.484 16.921c-1.29-1.007-2.95-1.664-4.555-2.3-3.267-1.294-5.25-2.245-5.25-4.544 0-0.923 0.427-1.784 1.203-2.424 0.889-0.733 2.139-1.12 3.616-1.12 2.761 0 4.629 1.753 4.646 1.769 0.162 0.156 0.385 0.232 0.609 0.206s0.423-0.151 0.545-0.341l0.772-1.208c0.187-0.293 0.149-0.675-0.093-0.925-0.082-0.085-1.931-1.96-5.258-2.323v-2.961c0-0.414-0.336-0.75-0.75-0.75h-1.443c-0.414 0-0.75 0.336-0.75 0.75v3.039c-1.682 0.293-3.13 0.981-4.216 2.012-1.219 1.156-1.891 2.687-1.891 4.311 0 1.973 0.776 3.547 2.372 4.811 1.328 1.052 3.024 1.737 4.664 2.399 3.159 1.275 5.076 2.201 5.076 4.298 0 2.285-1.844 3.88-4.484 3.88-3.486 0-5.689-2.339-5.721-2.373-0.144-0.157-0.347-0.247-0.56-0.244-0.213 0.002-0.416 0.095-0.557 0.255l-0.973 1.107c-0.248 0.282-0.249 0.705-0.002 0.988 0.096 0.11 2.282 2.569 6.291 3.075v2.942c0 0.414 0.336 0.75 0.75 0.75h1.443c0.414 0 0.75-0.336 0.75-0.75v-2.957c1.698-0.264 3.152-0.982 4.234-2.099 1.186-1.224 1.839-2.872 1.839-4.641 0-1.905-0.755-3.421-2.307-4.632z"></path>
      <path fill="#469e10" style="fill: var(--color1, #469e10)" d="M60.1 16.921c-1.29-1.007-2.95-1.664-4.555-2.3-3.267-1.294-5.25-2.245-5.25-4.544 0-0.923 0.427-1.784 1.203-2.424 0.889-0.733 2.139-1.12 3.616-1.12 2.761 0 4.629 1.753 4.646 1.769 0.162 0.156 0.385 0.232 0.609 0.206s0.423-0.151 0.545-0.341l0.772-1.208c0.187-0.293 0.149-0.675-0.093-0.925-0.082-0.085-1.931-1.96-5.258-2.323v-2.961c0-0.414-0.336-0.75-0.75-0.75h-1.443c-0.414 0-0.75 0.336-0.75 0.75v3.039c-1.682 0.293-3.13 0.981-4.216 2.012-1.219 1.156-1.891 2.687-1.891 4.311 0 1.973 0.776 3.547 2.372 4.811 1.328 1.052 3.024 1.737 4.664 2.399 3.159 1.275 5.076 2.201 5.076 4.298 0 2.285-1.844 3.88-4.484 3.88-3.486 0-5.689-2.339-5.721-2.373-0.144-0.157-0.347-0.247-0.56-0.244-0.213 0.002-0.416 0.095-0.557 0.255l-0.973 1.107c-0.248 0.282-0.249 0.705-0.002 0.988 0.096 0.11 2.282 2.569 6.291 3.075v2.942c0 0.414 0.336 0.75 0.75 0.75h1.443c0.414 0 0.75-0.336 0.75-0.75v-2.957c1.698-0.264 3.152-0.982 4.234-2.099 1.186-1.224 1.839-2.872 1.839-4.641 0-1.905-0.755-3.421-2.307-4.632z"></path>
    </symbol>
    <symbol id="24x24_external_link" height="24" viewBox="0 0 24 24" width="24">
      <path d="M18 21H6a3 3 0 0 1-3-3V6a3 3 0 0 1 3-3h5v2H6c-.55 0-1 .45-1 1v12c0 .55.45 1 1 1h12c.55 0 1-.45 1-1v-5h2v5a3 3 0 0 1-3 3zm-4.466-8.935L12.12 10.65l4.265-4.265L13 3h8v8l-3.2-3.2-4.266 4.265z"></path>
    </symbol>
  </defs>
</svg>
